# xmcd CD database file
#
# Track frame offsets:
#	150
#	9795
#	20901
#	33472
#	46024
#	57777
#	72226
#	81488
#	93329
#	106017
#	119040
#	131610
#	142918
#	153718
#	165108
#
# Disc length: 2333 seconds
#
# Revision: 0
# Processed by: cddbd v1.5.2PL0 Copyright (c) Steve Scherf et al.
# Submitted via: CDex 1.51
#
DISCID=bb091b0f
DTITLE=George Jones - Country Storyteller
DYEAR=2008
DGENRE=Country
TTITLE0=George Jones - The Race Is On
TTITLE1=George Jones - Tender Years
TTITLE2=George Jones - She Thinks I Still Care
TTITLE3=George Jones - Take Me
TTITLE4=George Jones - White Lightnin'
TTITLE5=George Jones - A Good Year For The Roses
TTITLE6=George Jones - Love Bug
TTITLE7=George Jones - Milwaukee Here I Come
TTITLE8=George Jones - Let's Get Together One More Time
TTITLE9=George Jones - When The Grass Grows Over Me
TTITLE10=George Jones - If My Heart Had Windows
TTITLE11=George Jones - 4033
TTITLE12=George Jones - Treasures Of Love
TTITLE13=George Jones - I'll Share My World With You
TTITLE14=George Jones - I've Got Five Dollars
EXTD=YEAR: 2008
EXTT0=
EXTT1=
EXTT2=
EXTT3=
EXTT4=
EXTT5=
EXTT6=
EXTT7=
EXTT8=
EXTT9=
EXTT10=
EXTT11=
EXTT12=
EXTT13=
EXTT14=
PLAYORDER=
